<svg xmlns="http://www.w3.org/2000/svg" width="32" height="32" version="1"><path fill="#5dc560" fill-rule="evenodd" d="M32 16c0 8.824-7.176 16-16 16S0 24.824 0 16 7.176 0 16 0c8.877 0 16 7.176 16 16z" clip-rule="evenodd"/><path fill="#43ab27" d="M17.174 31.88c.688-.05 1.385-.07 2.047-.206a15.868 15.868 0 0 0 5.718-2.41 16.12 16.12 0 0 0 5.801-7.041c.406-.957.72-1.962.934-3.002.076-.37.065-.766.115-1.145l-8.453-8.455a3.043 3.043 0 0 0-2.166-.885h-.31a3.031 3.031 0 0 0-2.686 2.465 2.924 2.924 0 0 0 .021 1.23l-.644-.644H9.072v.104c-.672 0-1.293.568-1.293 1.24v3.93l.434.433c-.127.059-.253.115-.381.186v4.343c0 .166.033.319.088.46.004.01.005.02.01.03.014.035.043.06.06.092.055.102.11.205.192.286l.025.023 8.967 8.967zm3.351-17.118c.209.047.423.074.643.074h.002l.514.516c-.04.004-.075.016-.116.02-.14.011-.293-.005-.441-.009l-.602-.601z"/><path fill="#fff" d="M20.86 8.736a3.04 3.04 0 0 0-2.74 3.05c0 1.655 1.396 3.05 3.05 3.05a3.056 3.056 0 0 0 3.05-3.05 3.023 3.023 0 0 0-3.05-3.05h-.31zm.207 1.138c.103 0 .155 0 .258.051l.104.104 1.085 1.757c.104.156-.051.362-.207.362h-.827v1.345c0 .155-.103.258-.258.258-.155 0-.259-.155-.259-.258v-1.345h-.775c-.155 0-.31-.206-.207-.362l1.086-1.81c0-.05 0-.05.051-.05-.103-.052-.103-.052-.051-.052zM9.072 11.89c-.672 0-1.292.569-1.292 1.24v3.93c1.499-.724 3.102-.776 4.032-.362.983.414 1.706 1.19 2.378 1.913.052 0 .052-.052.104-.052.775-.569 1.654-1.344 2.533-1.964.88-.62 1.861-1.086 2.895-1.086.931 0 2.172.465 3.154 1.447v-2.068c-1.034 1.034-5.325.673-5.325-3.102H9.072zm5.997 1.603a1.28 1.28 0 0 1 1.293 1.292 1.28 1.28 0 0 1-1.293 1.293 1.28 1.28 0 0 1-1.292-1.293 1.28 1.28 0 0 1 1.292-1.292zm0 .517a.761.761 0 0 0-.775.775c0 .414.362.776.775.776a.795.795 0 0 0 .776-.776.761.761 0 0 0-.776-.775zm4.653 2.12c-.878 0-1.706.413-2.585.982-.878.568-1.706 1.344-2.533 1.964-.827.569-1.654 1.086-2.482 1.086-.155 0-.258-.104-.258-.259 0-.155.103-.258.258-.258.466 0 1.034-.259 1.655-.672-.672-.724-1.293-1.396-2.12-1.758-.827-.362-2.326-.362-3.826.465v4.343c0 .724.57 1.24 1.293 1.24h12.563c.672 0 1.293-.568 1.293-1.24v-4.291c-.052 0-.104 0-.156-.052-1.034-1.137-2.274-1.55-3.102-1.55z"/></svg>